# Blender 5.2.0 LTS
# www.blender.org
mtllib bounding_sub4.mtl
o Icosphere
v 0.000000 -1.000000 0.000000
v 0.723607 -0.447220 0.525725
v -0.276388 -0.447220 0.850649
v -0.894426 -0.447216 0.000000
v -0.276388 -0.447220 -0.850649
v 0.723607 -0.447220 -0.525725
v 0.276388 0.447220 0.850649
v -0.723607 0.447220 0.525725
v -0.723607 0.447220 -0.525725
v 0.276388 0.447220 -0.850649
v 0.894426 0.447216 0.000000
v 0.000000 1.000000 0.000000
v -0.257937 -0.550685 0.793860
v -0.232822 -0.657519 0.716563
v -0.200688 -0.760403 0.617666
v -0.162456 -0.850654 0.499995
v -0.120413 -0.920955 0.370598
v -0.077607 -0.967950 0.238853
v -0.036848 -0.992865 0.113408
v 0.096471 -0.992865 0.070089
v 0.203181 -0.967950 0.147618
v 0.315251 -0.920955 0.229040
v 0.425323 -0.850654 0.309011
v 0.525420 -0.760403 0.381735
v 0.609547 -0.657519 0.442856
v 0.675300 -0.550685 0.490628
v 0.638452 -0.476987 0.604038
v 0.531941 -0.502302 0.681712
v 0.405008 -0.519572 0.752338
v 0.262869 -0.525738 0.809012
v 0.114564 -0.519572 0.846711
v -0.029639 -0.502302 0.864184
v -0.161465 -0.476988 0.863951
v 0.771771 -0.476987 -0.420539
v 0.812729 -0.502301 -0.295238
v 0.840673 -0.519571 -0.152694
v 0.850648 -0.525736 0.000000
v 0.840673 -0.519571 0.152694
v 0.812729 -0.502301 0.295238
v 0.771771 -0.476987 0.420539
v 0.096471 -0.992865 -0.070089
v 0.203181 -0.967950 -0.147618
v 0.315251 -0.920955 -0.229040
v 0.425323 -0.850654 -0.309011
v 0.525420 -0.760403 -0.381735
v 0.609547 -0.657519 -0.442856
v 0.675300 -0.550685 -0.490628
v -0.834716 -0.550681 0.000000
v -0.753442 -0.657515 0.000000
v -0.649456 -0.760399 0.000000
v -0.525730 -0.850652 0.000000
v -0.389673 -0.920953 0.000000
v -0.251147 -0.967949 0.000000
v -0.119245 -0.992865 0.000000
v -0.377183 -0.476988 0.793861
v -0.483971 -0.502302 0.716565
v -0.590366 -0.519572 0.617668
v -0.688189 -0.525736 0.499997
v -0.769872 -0.519570 0.370600
v -0.831051 -0.502299 0.238853
v -0.871565 -0.476984 0.113408
v -0.257937 -0.550685 -0.793860
v -0.232822 -0.657519 -0.716563
v -0.200688 -0.760403 -0.617666
v -0.162456 -0.850654 -0.499995
v -0.120413 -0.920955 -0.370598
v -0.077607 -0.967950 -0.238853
v -0.036848 -0.992865 -0.113408
v -0.871565 -0.476984 -0.113408
v -0.831051 -0.502299 -0.238853
v -0.769872 -0.519570 -0.370600
v -0.688189 -0.525736 -0.499997
v -0.590366 -0.519572 -0.617668
v -0.483971 -0.502302 -0.716565
v -0.377183 -0.476988 -0.793861
v -0.161465 -0.476988 -0.863951
v -0.029639 -0.502302 -0.864184
v 0.114564 -0.519573 -0.846711
v 0.262869 -0.525738 -0.809012
v 0.405008 -0.519572 -0.752338
v 0.531941 -0.502302 -0.681712
v 0.638453 -0.476987 -0.604038
v 0.931188 0.357738 0.070089
v 0.956626 0.251149 0.147618
v 0.964711 0.129893 0.229041
v 0.951058 -0.000000 0.309013
v 0.915098 -0.129893 0.381737
v 0.860698 -0.251151 0.442858
v 0.794547 -0.357741 0.490629
v 0.794547 -0.357741 -0.490629
v 0.860698 -0.251151 -0.442858
v 0.915098 -0.129893 -0.381737
v 0.951058 0.000000 -0.309013
v 0.964711 0.129893 -0.229041
v 0.956626 0.251149 -0.147618
v 0.931188 0.357738 -0.070089
v 0.221089 0.357741 0.907271
v 0.155215 0.251152 0.955422
v 0.080276 0.129894 0.988273
v -0.000000 -0.000000 1.000000
v -0.080276 -0.129894 0.988273
v -0.155215 -0.251152 0.955422
v -0.221089 -0.357741 0.907271
v 0.712150 -0.357741 0.604039
v 0.687159 -0.251152 0.681715
v 0.645839 -0.129894 0.752343
v 0.587786 0.000000 0.809017
v 0.515946 0.129894 0.846716
v 0.436007 0.251152 0.864188
v 0.354409 0.357742 0.863953
v -0.794547 0.357741 0.490629
v -0.860698 0.251151 0.442858
v -0.915098 0.129893 0.381737
v -0.951058 -0.000000 0.309013
v -0.964711 -0.129893 0.229041
v -0.956626 -0.251149 0.147618
v -0.931188 -0.357738 0.070089
v -0.354409 -0.357742 0.863953
v -0.436007 -0.251152 0.864188
v -0.515946 -0.129894 0.846716
v -0.587786 0.000000 0.809017
v -0.645839 0.129894 0.752342
v -0.687159 0.251152 0.681715
v -0.712150 0.357741 0.604039
v -0.712150 0.357741 -0.604039
v -0.687159 0.251152 -0.681715
v -0.645839 0.129894 -0.752343
v -0.587786 -0.000000 -0.809017
v -0.515946 -0.129894 -0.846716
v -0.436007 -0.251152 -0.864188
v -0.354409 -0.357742 -0.863953
v -0.931188 -0.357738 -0.070089
v -0.956626 -0.251149 -0.147618
v -0.964711 -0.129893 -0.229041
v -0.951058 0.000000 -0.309013
v -0.915098 0.129893 -0.381737
v -0.860698 0.251151 -0.442858
v -0.794547 0.357741 -0.490629
v 0.354409 0.357742 -0.863953
v 0.436007 0.251152 -0.864188
v 0.515946 0.129894 -0.846716
v 0.587786 -0.000000 -0.809017
v 0.645839 -0.129894 -0.752342
v 0.687159 -0.251152 -0.681715
v 0.712150 -0.357741 -0.604039
v -0.221089 -0.357741 -0.907271
v -0.155215 -0.251152 -0.955422
v -0.080276 -0.129894 -0.988273
v 0.000000 0.000000 -1.000000
v 0.080276 0.129894 -0.988273
v 0.155215 0.251152 -0.955422
v 0.221089 0.357741 -0.907271
v 0.871565 0.476984 0.113408
v 0.831051 0.502299 0.238853
v 0.769872 0.519570 0.370600
v 0.688189 0.525736 0.499997
v 0.590366 0.519572 0.617668
v 0.483971 0.502302 0.716565
v 0.377183 0.476988 0.793861
v 0.161465 0.476988 0.863951
v 0.029639 0.502302 0.864184
v -0.114564 0.519573 0.846711
v -0.262869 0.525738 0.809012
v -0.405008 0.519572 0.752338
v -0.531941 0.502302 0.681712
v -0.638453 0.476987 0.604038
v -0.771771 0.476987 0.420539
v -0.812729 0.502301 0.295238
v -0.840673 0.519571 0.152694
v -0.850648 0.525736 -0.000000
v -0.840673 0.519571 -0.152694
v -0.812729 0.502301 -0.295238
v -0.771771 0.476987 -0.420539
v -0.638452 0.476987 -0.604038
v -0.531941 0.502302 -0.681712
v -0.405008 0.519572 -0.752338
v -0.262869 0.525738 -0.809012
v -0.114564 0.519572 -0.846711
v 0.029639 0.502302 -0.864184
v 0.161465 0.476988 -0.863951
v 0.377183 0.476988 -0.793861
v 0.483971 0.502302 -0.716565
v 0.590366 0.519572 -0.617668
v 0.688189 0.525736 -0.499997
v 0.769872 0.519570 -0.370600
v 0.831051 0.502299 -0.238853
v 0.871565 0.476984 -0.113408
v 0.036848 0.992865 0.113408
v 0.077607 0.967950 0.238853
v 0.120413 0.920955 0.370598
v 0.162456 0.850654 0.499995
v 0.200688 0.760403 0.617666
v 0.232822 0.657519 0.716563
v 0.257937 0.550685 0.793860
v 0.834716 0.550681 0.000000
v 0.753442 0.657515 0.000000
v 0.649456 0.760399 0.000000
v 0.525730 0.850652 0.000000
v 0.389673 0.920953 0.000000
v 0.251147 0.967949 0.000000
v 0.119245 0.992865 0.000000
v -0.096471 0.992865 0.070089
v -0.203181 0.967950 0.147618
v -0.315251 0.920955 0.229040
v -0.425323 0.850654 0.309011
v -0.525420 0.760403 0.381735
v -0.609547 0.657519 0.442856
v -0.675300 0.550685 0.490628
v -0.096471 0.992865 -0.070089
v -0.203181 0.967950 -0.147618
v -0.315251 0.920955 -0.229040
v -0.425323 0.850654 -0.309011
v -0.525420 0.760403 -0.381735
v -0.609547 0.657519 -0.442856
v -0.675300 0.550685 -0.490628
v 0.036848 0.992865 -0.113408
v 0.077607 0.967950 -0.238853
v 0.120413 0.920955 -0.370598
v 0.162456 0.850654 -0.499995
v 0.200688 0.760403 -0.617666
v 0.232822 0.657519 -0.716563
v 0.257937 0.550685 -0.793860
v 0.166198 0.978672 -0.120749
v 0.307167 0.943208 -0.126518
v 0.215245 0.943209 -0.253036
v 0.451375 0.882854 -0.129731
v 0.361800 0.894429 -0.262863
v 0.262862 0.882855 -0.389192
v 0.587783 0.798549 -0.129731
v 0.506729 0.819912 -0.266403
v 0.409951 0.819913 -0.399604
v 0.305014 0.798552 -0.518924
v 0.706258 0.696558 -0.126519
v 0.638194 0.723610 -0.262864
v 0.550008 0.733353 -0.399605
v 0.447209 0.723612 -0.525728
v 0.338569 0.696561 -0.632593
v 0.801022 0.586331 -0.120750
v 0.747366 0.614342 -0.253038
v 0.672087 0.629942 -0.389194
v 0.577830 0.629943 -0.518926
v 0.471599 0.614344 -0.632594
v 0.362366 0.586334 -0.724502
v -0.063483 0.978672 -0.195376
v -0.025408 0.943209 -0.331227
v -0.174138 0.943209 -0.282901
v 0.016098 0.882855 -0.469369
v -0.138197 0.894430 -0.425319
v -0.288916 0.882855 -0.370262
v 0.058250 0.798552 -0.599101
v -0.096779 0.819914 -0.564248
v -0.253366 0.819914 -0.513369
v -0.399272 0.798552 -0.450440
v 0.097915 0.696561 -0.710785
v -0.052790 0.723612 -0.688185
v -0.210088 0.733355 -0.646571
v -0.361804 0.723612 -0.587778
v -0.497009 0.696561 -0.517479
v 0.132684 0.586334 -0.799129
v -0.009708 0.614345 -0.788978
v -0.162463 0.629944 -0.759458
v -0.314971 0.629944 -0.709904
v -0.455902 0.614344 -0.643998
v -0.577066 0.586334 -0.568513
v -0.205432 0.978671 0.000000
v -0.322868 0.943208 -0.078192
v -0.322868 0.943208 0.078192
v -0.441423 0.882855 -0.160354
v -0.447210 0.894429 0.000000
v -0.441423 0.882855 0.160354
v -0.551779 0.798551 -0.240532
v -0.566539 0.819912 -0.082322
v -0.566539 0.819912 0.082322
v -0.551779 0.798551 0.240532
v -0.645740 0.696561 -0.312768
v -0.670817 0.723611 -0.162457
v -0.679848 0.733353 0.000000
v -0.670817 0.723611 0.162457
v -0.645740 0.696560 0.312768
v -0.719015 0.586334 -0.373135
v -0.753363 0.614343 -0.234576
v -0.772492 0.629942 -0.080177
v -0.772492 0.629942 0.080177
v -0.753363 0.614343 0.234576
v -0.719015 0.586334 0.373135
v -0.063483 0.978672 0.195376
v -0.174138 0.943209 0.282901
v -0.025408 0.943209 0.331227
v -0.288916 0.882855 0.370262
v -0.138197 0.894430 0.425319
v 0.016098 0.882855 0.469369
v -0.399272 0.798552 0.450440
v -0.253366 0.819914 0.513369
v -0.096779 0.819914 0.564248
v 0.058250 0.798552 0.599101
v -0.497009 0.696561 0.517479
v -0.361804 0.723612 0.587778
v -0.210088 0.733355 0.646571
v -0.052790 0.723612 0.688185
v 0.097915 0.696561 0.710785
v -0.577066 0.586334 0.568513
v -0.455902 0.614345 0.643998
v -0.314971 0.629944 0.709904
v -0.162463 0.629944 0.759458
v -0.009708 0.614345 0.788978
v 0.132684 0.586335 0.799129
v 0.166198 0.978672 0.120749
v 0.215245 0.943209 0.253036
v 0.307167 0.943208 0.126518
v 0.262862 0.882855 0.389192
v 0.361800 0.894429 0.262863
v 0.451375 0.882854 0.129731
v 0.305014 0.798552 0.518924
v 0.409951 0.819913 0.399604
v 0.506729 0.819912 0.266403
v 0.587783 0.798549 0.129731
v 0.338569 0.696561 0.632593
v 0.447209 0.723612 0.525728
v 0.550008 0.733353 0.399605
v 0.638194 0.723610 0.262864
v 0.706258 0.696558 0.126519
v 0.362366 0.586334 0.724502
v 0.471599 0.614344 0.632594
v 0.577830 0.629943 0.518926
v 0.672087 0.629942 0.389194
v 0.747366 0.614342 0.253038
v 0.801022 0.586331 0.120750
v 0.903740 0.380897 -0.195376
v 0.921508 0.266063 -0.282902
v 0.854992 0.399094 -0.331229
v 0.918856 0.136410 -0.370264
v 0.861804 0.276396 -0.425322
v 0.782446 0.409229 -0.469371
v 0.892805 -0.000000 -0.450443
v 0.846660 0.140059 -0.513372
v 0.776630 0.280118 -0.564251
v 0.688190 0.409230 -0.599104
v 0.845290 -0.133032 -0.517481
v 0.809019 0.000000 -0.587782
v 0.749882 0.140059 -0.646576
v 0.670821 0.276397 -0.688189
v 0.579226 0.399096 -0.710788
v 0.782501 -0.253933 -0.568515
v 0.753368 -0.133032 -0.644002
v 0.704293 0.000000 -0.709909
v 0.636088 0.136411 -0.759463
v 0.553820 0.266065 -0.788982
v 0.465085 0.380900 -0.799132
v 0.093451 0.380900 -0.919882
v 0.015700 0.266064 -0.963827
v -0.050816 0.399096 -0.915500
v -0.068205 0.136410 -0.988302
v -0.138198 0.276397 -0.951055
v -0.204615 0.409230 -0.889193
v -0.152509 -0.000000 -0.988302
v -0.226618 0.140059 -0.963861
v -0.296648 0.280118 -0.912981
v -0.357124 0.409230 -0.839639
v -0.230948 -0.133033 -0.963829
v -0.309016 -0.000000 -0.951057
v -0.383207 0.140059 -0.912982
v -0.447215 0.276397 -0.850649
v -0.497012 0.399096 -0.770520
v -0.298885 -0.253934 -0.919883
v -0.379680 -0.133033 -0.915503
v -0.457527 -0.000000 -0.889196
v -0.525732 0.136410 -0.839642
v -0.579229 0.266065 -0.770522
v -0.616302 0.380900 -0.689266
v -0.845982 0.380899 -0.373136
v -0.911804 0.266063 -0.312769
v -0.886396 0.399095 -0.234577
v -0.961008 0.136410 -0.240533
v -0.947213 0.276396 -0.162458
v -0.908902 0.409229 -0.080178
v -0.987059 0.000000 -0.160355
v -0.986715 0.140059 -0.082322
v -0.959966 0.280117 0.000000
v -0.908902 0.409229 0.080178
v -0.988023 -0.133031 -0.078192
v -1.000000 0.000001 0.000000
v -0.986715 0.140059 0.082323
v -0.947213 0.276397 0.162458
v -0.886395 0.399095 0.234577
v -0.967222 -0.253931 0.000000
v -0.988023 -0.133030 0.078193
v -0.987059 0.000001 0.160356
v -0.961008 0.136411 0.240534
v -0.911803 0.266065 0.312769
v -0.845982 0.380900 0.373136
v -0.616302 0.380900 0.689266
v -0.579229 0.266064 0.770521
v -0.497012 0.399096 0.770520
v -0.525732 0.136410 0.839641
v -0.447216 0.276397 0.850649
v -0.357124 0.409230 0.839639
v -0.457527 -0.000001 0.889196
v -0.383208 0.140059 0.912982
v -0.296649 0.280118 0.912981
v -0.204616 0.409230 0.889193
v -0.379681 -0.133033 0.915502
v -0.309017 -0.000001 0.951056
v -0.226619 0.140059 0.963861
v -0.138199 0.276397 0.951055
v -0.050817 0.399096 0.915500
v -0.298885 -0.253934 0.919883
v -0.230948 -0.133033 0.963828
v -0.152509 -0.000000 0.988302
v -0.068206 0.136410 0.988302
v 0.015699 0.266064 0.963827
v 0.093451 0.380900 0.919882
v 0.465085 0.380900 0.799132
v 0.553820 0.266064 0.788983
v 0.579226 0.399096 0.710788
v 0.636088 0.136410 0.759463
v 0.670820 0.276396 0.688190
v 0.688190 0.409229 0.599104
v 0.704293 -0.000001 0.709909
v 0.749882 0.140058 0.646576
v 0.776630 0.280116 0.564252
v 0.782446 0.409228 0.469372
v 0.753368 -0.133034 0.644002
v 0.809019 -0.000002 0.587783
v 0.846659 0.140057 0.513373
v 0.861804 0.276394 0.425323
v 0.854992 0.399093 0.331230
v 0.782501 -0.253934 0.568515
v 0.845289 -0.133034 0.517482
v 0.892805 -0.000002 0.450444
v 0.918856 0.136407 0.370266
v 0.921508 0.266061 0.282904
v 0.903740 0.380896 0.195377
v 0.298886 0.253934 -0.919883
v 0.379681 0.133033 -0.915502
v 0.230948 0.133033 -0.963828
v 0.457527 -0.000000 -0.889196
v 0.309017 -0.000000 -0.951056
v 0.152509 0.000000 -0.988302
v 0.525732 -0.136411 -0.839641
v 0.383207 -0.140060 -0.912982
v 0.226619 -0.140060 -0.963861
v 0.068205 -0.136410 -0.988302
v 0.579229 -0.266065 -0.770521
v 0.447216 -0.276398 -0.850648
v 0.296648 -0.280119 -0.912980
v 0.138199 -0.276398 -0.951055
v -0.015699 -0.266065 -0.963827
v 0.616302 -0.380900 -0.689265
v 0.497012 -0.399097 -0.770520
v 0.357124 -0.409231 -0.839639
v 0.204615 -0.409231 -0.889192
v 0.050817 -0.399097 -0.915500
v -0.093451 -0.380900 -0.919881
v -0.782501 0.253934 -0.568515
v -0.753368 0.133032 -0.644002
v -0.845290 0.133032 -0.517482
v -0.704293 -0.000000 -0.709910
v -0.809018 -0.000000 -0.587783
v -0.892805 0.000000 -0.450444
v -0.636087 -0.136411 -0.759464
v -0.749881 -0.140059 -0.646577
v -0.846659 -0.140059 -0.513374
v -0.918856 -0.136410 -0.370265
v -0.553819 -0.266065 -0.788983
v -0.670819 -0.276397 -0.688191
v -0.776628 -0.280118 -0.564253
v -0.861803 -0.276396 -0.425324
v -0.921507 -0.266063 -0.282904
v -0.465084 -0.380900 -0.799132
v -0.579224 -0.399096 -0.710789
v -0.688189 -0.409230 -0.599106
v -0.782445 -0.409229 -0.469374
v -0.854991 -0.399094 -0.331231
v -0.903739 -0.380897 -0.195378
v -0.782501 0.253934 0.568515
v -0.845290 0.133032 0.517482
v -0.753368 0.133032 0.644002
v -0.892805 -0.000000 0.450444
v -0.809018 0.000000 0.587783
v -0.704293 0.000000 0.709910
v -0.918856 -0.136410 0.370265
v -0.846659 -0.140059 0.513374
v -0.749881 -0.140059 0.646577
v -0.636087 -0.136411 0.759464
v -0.921508 -0.266063 0.282904
v -0.861803 -0.276396 0.425324
v -0.776629 -0.280118 0.564253
v -0.670819 -0.276397 0.688191
v -0.553819 -0.266065 0.788983
v -0.903739 -0.380897 0.195378
v -0.854991 -0.399094 0.331231
v -0.782445 -0.409229 0.469374
v -0.688189 -0.409230 0.599106
v -0.579224 -0.399096 0.710789
v -0.465084 -0.380900 0.799132
v 0.298886 0.253934 0.919883
v 0.230948 0.133032 0.963828
v 0.379681 0.133033 0.915502
v 0.152509 -0.000000 0.988302
v 0.309017 0.000000 0.951056
v 0.457527 0.000000 0.889196
v 0.068206 -0.136410 0.988302
v 0.226619 -0.140060 0.963861
v 0.383207 -0.140060 0.912982
v 0.525732 -0.136411 0.839641
v -0.015699 -0.266065 0.963827
v 0.138199 -0.276397 0.951055
v 0.296648 -0.280119 0.912980
v 0.447216 -0.276398 0.850648
v 0.579229 -0.266065 0.770521
v -0.093451 -0.380900 0.919882
v 0.050817 -0.399097 0.915500
v 0.204615 -0.409230 0.889192
v 0.357124 -0.409230 0.839639
v 0.497012 -0.399097 0.770520
v 0.616302 -0.380900 0.689266
v 0.967222 0.253931 0.000000
v 0.988023 0.133031 0.078192
v 0.988023 0.133031 -0.078192
v 0.987059 -0.000000 0.160355
v 1.000000 0.000000 0.000000
v 0.987059 0.000000 -0.160355
v 0.961008 -0.136410 0.240533
v 0.986715 -0.140059 0.082322
v 0.986715 -0.140059 -0.082322
v 0.961008 -0.136410 -0.240533
v 0.911804 -0.266064 0.312769
v 0.947213 -0.276396 0.162458
v 0.959966 -0.280117 0.000000
v 0.947213 -0.276396 -0.162458
v 0.911804 -0.266064 -0.312769
v 0.845982 -0.380899 0.373136
v 0.886396 -0.399095 0.234576
v 0.908902 -0.409229 0.080178
v 0.908902 -0.409229 -0.080178
v 0.886396 -0.399095 -0.234576
v 0.845982 -0.380899 -0.373136
v 0.577066 -0.586334 -0.568513
v 0.497009 -0.696561 -0.517479
v 0.455902 -0.614344 -0.643999
v 0.399272 -0.798552 -0.450441
v 0.361804 -0.723612 -0.587779
v 0.314971 -0.629943 -0.709905
v 0.288916 -0.882855 -0.370263
v 0.253366 -0.819913 -0.513370
v 0.210087 -0.733354 -0.646572
v 0.162463 -0.629943 -0.759459
v 0.174138 -0.943209 -0.282902
v 0.138197 -0.894429 -0.425321
v 0.096779 -0.819912 -0.564250
v 0.052789 -0.723611 -0.688186
v 0.009708 -0.614344 -0.788979
v 0.063482 -0.978671 -0.195377
v 0.025407 -0.943208 -0.331229
v -0.016099 -0.882854 -0.469371
v -0.058250 -0.798550 -0.599103
v -0.097915 -0.696560 -0.710786
v -0.132684 -0.586334 -0.799129
v -0.362367 -0.586334 -0.724501
v -0.338569 -0.696561 -0.632593
v -0.471601 -0.614344 -0.632593
v -0.305014 -0.798552 -0.518923
v -0.447211 -0.723612 -0.525727
v -0.577832 -0.629943 -0.518924
v -0.262862 -0.882855 -0.389192
v -0.409952 -0.819913 -0.399603
v -0.550010 -0.733353 -0.399603
v -0.672088 -0.629942 -0.389192
v -0.215245 -0.943209 -0.253036
v -0.361801 -0.894429 -0.262863
v -0.506730 -0.819912 -0.266402
v -0.638195 -0.723609 -0.262863
v -0.747367 -0.614341 -0.253036
v -0.166198 -0.978671 -0.120749
v -0.307168 -0.943208 -0.126518
v -0.451376 -0.882853 -0.129730
v -0.587784 -0.798549 -0.129730
v -0.706258 -0.696557 -0.126518
v -0.801022 -0.586330 -0.120749
v -0.801022 -0.586330 0.120750
v -0.706258 -0.696558 0.126518
v -0.747367 -0.614341 0.253037
v -0.587784 -0.798549 0.129731
v -0.638195 -0.723609 0.262864
v -0.672088 -0.629941 0.389193
v -0.451375 -0.882853 0.129731
v -0.506730 -0.819911 0.266403
v -0.550009 -0.733352 0.399605
v -0.577832 -0.629942 0.518925
v -0.307168 -0.943208 0.126519
v -0.361801 -0.894428 0.262864
v -0.409952 -0.819912 0.399605
v -0.447211 -0.723610 0.525729
v -0.471601 -0.614343 0.632594
v -0.166198 -0.978671 0.120750
v -0.215246 -0.943208 0.253038
v -0.262863 -0.882854 0.389194
v -0.305015 -0.798550 0.518925
v -0.338569 -0.696560 0.632594
v -0.362367 -0.586333 0.724502
v 0.719015 -0.586334 -0.373135
v 0.753363 -0.614343 -0.234576
v 0.645740 -0.696560 -0.312768
v 0.772493 -0.629942 -0.080177
v 0.670817 -0.723611 -0.162457
v 0.551780 -0.798551 -0.240532
v 0.772493 -0.629942 0.080178
v 0.679849 -0.733353 0.000000
v 0.566540 -0.819912 -0.082322
v 0.441423 -0.882854 -0.160354
v 0.753364 -0.614343 0.234576
v 0.670818 -0.723610 0.162458
v 0.566541 -0.819911 0.082323
v 0.447211 -0.894428 0.000001
v 0.322869 -0.943208 -0.078191
v 0.719016 -0.586333 0.373136
v 0.645741 -0.696559 0.312769
v 0.551781 -0.798550 0.240533
v 0.441424 -0.882854 0.160356
v 0.322870 -0.943208 0.078193
v 0.205432 -0.978671 0.000001
v -0.132684 -0.586334 0.799129
v -0.097915 -0.696561 0.710785
v 0.009709 -0.614344 0.788978
v -0.058249 -0.798552 0.599101
v 0.052790 -0.723612 0.688185
v 0.162463 -0.629944 0.759458
v -0.016097 -0.882855 0.469370
v 0.096780 -0.819913 0.564249
v 0.210089 -0.733354 0.646572
v 0.314971 -0.629943 0.709905
v 0.025409 -0.943209 0.331228
v 0.138199 -0.894429 0.425321
v 0.253368 -0.819912 0.513370
v 0.361805 -0.723611 0.587779
v 0.455903 -0.614344 0.643999
v 0.063484 -0.978671 0.195377
v 0.174140 -0.943208 0.282902
v 0.288918 -0.882854 0.370264
v 0.399274 -0.798550 0.450441
v 0.497011 -0.696560 0.517480
v 0.577067 -0.586333 0.568513
vt 0.181819 0.000000
vt 0.193183 0.019683
vt 0.170455 0.019683
vt 0.272728 0.157461
vt 0.284092 0.137778
vt 0.295455 0.157461
vt 0.909091 0.000000
vt 0.920455 0.019683
vt 0.897727 0.019683
vt 0.727273 0.000000
vt 0.738637 0.019683
vt 0.715909 0.019683
vt 0.545455 0.000000
vt 0.556819 0.019683
vt 0.534091 0.019683
vt 0.284092 0.177143
vt 0.090910 0.157461
vt 0.113637 0.157461
vt 0.102274 0.177143
vt 0.818182 0.157461
vt 0.840909 0.157461
vt 0.829546 0.177143
vt 0.636364 0.157461
vt 0.659091 0.157461
vt 0.647728 0.177143
vt 0.454546 0.157461
vt 0.477273 0.157461
vt 0.465910 0.177143
vt 0.261364 0.177143
vt 0.079546 0.177143
vt 0.806818 0.177143
vt 0.625000 0.177143
vt 0.443182 0.177143
vt 0.181819 0.314921
vt 0.204546 0.314921
vt 0.193183 0.334604
vt 0.000000 0.314921
vt 0.022727 0.314921
vt 0.011364 0.334604
vt 0.727273 0.314921
vt 0.750000 0.314921
vt 0.738637 0.334604
vt 0.545455 0.314921
vt 0.568182 0.314921
vt 0.556819 0.334604
vt 0.363637 0.314921
vt 0.386364 0.314921
vt 0.375001 0.334604
vt 0.443182 0.452699
vt 0.465910 0.452699
vt 0.454546 0.472382
vt 0.431819 0.433017
vt 0.454546 0.433017
vt 0.420455 0.413334
vt 0.443182 0.413334
vt 0.409092 0.393652
vt 0.431819 0.393652
vt 0.397728 0.373969
vt 0.420455 0.373969
vt 0.386364 0.354286
vt 0.409091 0.354286
vt 0.397728 0.334604
vt 0.477273 0.433017
vt 0.465910 0.413334
vt 0.488637 0.413334
vt 0.454546 0.393652
vt 0.477273 0.393652
vt 0.500000 0.393652
vt 0.443182 0.373969
vt 0.465910 0.373969
vt 0.488637 0.373969
vt 0.511364 0.373969
vt 0.431819 0.354286
vt 0.454546 0.354286
vt 0.477273 0.354286
vt 0.500000 0.354286
vt 0.522728 0.354286
vt 0.420455 0.334604
vt 0.443182 0.334604
vt 0.465910 0.334604
vt 0.488637 0.334604
vt 0.511364 0.334604
vt 0.534091 0.334604
vt 0.409091 0.314921
vt 0.431819 0.314921
vt 0.454546 0.314921
vt 0.477273 0.314921
vt 0.500000 0.314921
vt 0.522728 0.314921
vt 0.625000 0.452699
vt 0.647728 0.452699
vt 0.636364 0.472382
vt 0.613637 0.433017
vt 0.636364 0.433017
vt 0.602273 0.413334
vt 0.625000 0.413334
vt 0.590910 0.393652
vt 0.613637 0.393652
vt 0.579546 0.373969
vt 0.602273 0.373969
vt 0.568182 0.354286
vt 0.590909 0.354286
vt 0.579546 0.334604
vt 0.659091 0.433017
vt 0.647728 0.413334
vt 0.670455 0.413334
vt 0.636364 0.393652
vt 0.659091 0.393652
vt 0.681818 0.393652
vt 0.625000 0.373969
vt 0.647728 0.373969
vt 0.670455 0.373969
vt 0.693182 0.373969
vt 0.613637 0.354286
vt 0.636364 0.354286
vt 0.659091 0.354286
vt 0.681818 0.354286
vt 0.704546 0.354286
vt 0.602273 0.334604
vt 0.625000 0.334604
vt 0.647728 0.334604
vt 0.670455 0.334604
vt 0.693182 0.334604
vt 0.715909 0.334604
vt 0.590909 0.314921
vt 0.613637 0.314921
vt 0.636364 0.314921
vt 0.659091 0.314921
vt 0.681819 0.314921
vt 0.704546 0.314921
vt 0.806818 0.452699
vt 0.829546 0.452699
vt 0.818182 0.472382
vt 0.795455 0.433017
vt 0.818182 0.433017
vt 0.784091 0.413334
vt 0.806818 0.413334
vt 0.772727 0.393652
vt 0.795455 0.393652
vt 0.761364 0.373969
vt 0.784091 0.373969
vt 0.750000 0.354286
vt 0.772727 0.354286
vt 0.761364 0.334604
vt 0.840909 0.433017
vt 0.829546 0.413334
vt 0.852273 0.413334
vt 0.818182 0.393652
vt 0.840909 0.393652
vt 0.863636 0.393652
vt 0.806818 0.373969
vt 0.829546 0.373969
vt 0.852273 0.373969
vt 0.875000 0.373969
vt 0.795455 0.354286
vt 0.818182 0.354286
vt 0.840909 0.354286
vt 0.863636 0.354286
vt 0.886364 0.354286
vt 0.784091 0.334604
vt 0.806818 0.334604
vt 0.829546 0.334604
vt 0.852273 0.334604
vt 0.875000 0.334604
vt 0.897727 0.334604
vt 0.772727 0.314921
vt 0.795455 0.314921
vt 0.818182 0.314921
vt 0.840909 0.314921
vt 0.863636 0.314921
vt 0.886364 0.314921
vt 0.909091 0.314921
vt 0.079546 0.452699
vt 0.102274 0.452699
vt 0.090910 0.472382
vt 0.068182 0.433017
vt 0.090910 0.433017
vt 0.056819 0.413334
vt 0.079546 0.413334
vt 0.045455 0.393652
vt 0.068182 0.393652
vt 0.034091 0.373969
vt 0.056819 0.373969
vt 0.022727 0.354286
vt 0.045455 0.354286
vt 0.034091 0.334604
vt 0.113637 0.433017
vt 0.102274 0.413334
vt 0.125001 0.413334
vt 0.090910 0.393652
vt 0.113637 0.393652
vt 0.136365 0.393652
vt 0.079546 0.373969
vt 0.102273 0.373969
vt 0.125001 0.373969
vt 0.147728 0.373969
vt 0.068182 0.354286
vt 0.090910 0.354286
vt 0.113637 0.354286
vt 0.136364 0.354286
vt 0.159092 0.354286
vt 0.056819 0.334604
vt 0.079546 0.334604
vt 0.102273 0.334604
vt 0.125001 0.334604
vt 0.147728 0.334604
vt 0.170455 0.334604
vt 0.045455 0.314921
vt 0.068182 0.314921
vt 0.090910 0.314921
vt 0.113637 0.314921
vt 0.136364 0.314921
vt 0.159092 0.314921
vt 0.261364 0.452699
vt 0.284092 0.452699
vt 0.272728 0.472382
vt 0.250001 0.433017
vt 0.272728 0.433017
vt 0.238637 0.413334
vt 0.261364 0.413334
vt 0.227273 0.393652
vt 0.250001 0.393652
vt 0.215910 0.373969
vt 0.238637 0.373969
vt 0.204546 0.354286
vt 0.227273 0.354286
vt 0.215910 0.334604
vt 0.295455 0.433017
vt 0.284092 0.413334
vt 0.306819 0.413334
vt 0.272728 0.393652
vt 0.295455 0.393652
vt 0.318182 0.393652
vt 0.261364 0.373969
vt 0.284092 0.373969
vt 0.306819 0.373969
vt 0.329546 0.373969
vt 0.250001 0.354286
vt 0.272728 0.354286
vt 0.295455 0.354286
vt 0.318182 0.354286
vt 0.340910 0.354286
vt 0.238637 0.334604
vt 0.261364 0.334604
vt 0.284092 0.334604
vt 0.306819 0.334604
vt 0.329546 0.334604
vt 0.352273 0.334604
vt 0.227274 0.314921
vt 0.250001 0.314921
vt 0.272728 0.314921
vt 0.295455 0.314921
vt 0.318183 0.314921
vt 0.340910 0.314921
vt 0.375001 0.295238
vt 0.386364 0.275556
vt 0.397728 0.295238
vt 0.397728 0.255874
vt 0.409092 0.275556
vt 0.409092 0.236191
vt 0.420455 0.255874
vt 0.420455 0.216509
vt 0.431819 0.236191
vt 0.431819 0.196826
vt 0.443182 0.216509
vt 0.454546 0.196826
vt 0.420455 0.295238
vt 0.431819 0.275556
vt 0.443182 0.295238
vt 0.443182 0.255874
vt 0.454546 0.275556
vt 0.465910 0.295238
vt 0.454546 0.236191
vt 0.465910 0.255874
vt 0.477273 0.275556
vt 0.488637 0.295238
vt 0.465910 0.216509
vt 0.477273 0.236191
vt 0.488637 0.255874
vt 0.500000 0.275556
vt 0.511364 0.295238
vt 0.477273 0.196826
vt 0.488637 0.216508
vt 0.500000 0.236191
vt 0.511364 0.255874
vt 0.522728 0.275556
vt 0.534091 0.295238
vt 0.556819 0.295238
vt 0.568182 0.275556
vt 0.579546 0.295238
vt 0.579546 0.255874
vt 0.590910 0.275556
vt 0.590910 0.236191
vt 0.602273 0.255874
vt 0.602273 0.216509
vt 0.613637 0.236191
vt 0.613637 0.196826
vt 0.625000 0.216509
vt 0.636364 0.196826
vt 0.602273 0.295238
vt 0.613637 0.275556
vt 0.625000 0.295238
vt 0.625000 0.255874
vt 0.636364 0.275556
vt 0.647728 0.295238
vt 0.636364 0.236191
vt 0.647728 0.255874
vt 0.659091 0.275556
vt 0.670455 0.295238
vt 0.647728 0.216509
vt 0.659091 0.236191
vt 0.670455 0.255874
vt 0.681818 0.275556
vt 0.693182 0.295238
vt 0.659091 0.196826
vt 0.670455 0.216508
vt 0.681818 0.236191
vt 0.693182 0.255874
vt 0.704546 0.275556
vt 0.715909 0.295238
vt 0.738637 0.295238
vt 0.750000 0.275556
vt 0.761364 0.295238
vt 0.761364 0.255874
vt 0.772727 0.275556
vt 0.772727 0.236191
vt 0.784091 0.255874
vt 0.784091 0.216509
vt 0.795455 0.236191
vt 0.795455 0.196826
vt 0.806818 0.216509
vt 0.818182 0.196826
vt 0.784091 0.295238
vt 0.795455 0.275556
vt 0.806818 0.295238
vt 0.806818 0.255874
vt 0.818182 0.275556
vt 0.829546 0.295238
vt 0.818182 0.236191
vt 0.829546 0.255874
vt 0.840909 0.275556
vt 0.852273 0.295238
vt 0.829546 0.216509
vt 0.840909 0.236191
vt 0.852273 0.255874
vt 0.863636 0.275556
vt 0.875000 0.295238
vt 0.840909 0.196826
vt 0.852273 0.216508
vt 0.863636 0.236191
vt 0.875000 0.255874
vt 0.886364 0.275556
vt 0.897727 0.295238
vt 0.011364 0.295238
vt 0.022727 0.275556
vt 0.034091 0.295238
vt 0.034091 0.255874
vt 0.045455 0.275556
vt 0.045455 0.236191
vt 0.056819 0.255874
vt 0.056819 0.216509
vt 0.068182 0.236191
vt 0.068182 0.196826
vt 0.079546 0.216509
vt 0.090910 0.196826
vt 0.056819 0.295238
vt 0.068182 0.275556
vt 0.079546 0.295238
vt 0.079546 0.255874
vt 0.090910 0.275556
vt 0.102273 0.295238
vt 0.090910 0.236191
vt 0.102273 0.255874
vt 0.113637 0.275556
vt 0.125001 0.295238
vt 0.102274 0.216509
vt 0.113637 0.236191
vt 0.125001 0.255874
vt 0.136364 0.275556
vt 0.147728 0.295238
vt 0.113637 0.196826
vt 0.125001 0.216508
vt 0.136365 0.236191
vt 0.147728 0.255874
vt 0.159092 0.275556
vt 0.170455 0.295238
vt 0.193183 0.295238
vt 0.204546 0.275556
vt 0.215910 0.295238
vt 0.215910 0.255874
vt 0.227274 0.275556
vt 0.227273 0.236191
vt 0.238637 0.255874
vt 0.238637 0.216509
vt 0.250001 0.236191
vt 0.250001 0.196826
vt 0.261364 0.216509
vt 0.272728 0.196826
vt 0.238637 0.295238
vt 0.250001 0.275556
vt 0.261364 0.295238
vt 0.261364 0.255874
vt 0.272728 0.275556
vt 0.284092 0.295238
vt 0.272728 0.236191
vt 0.284092 0.255874
vt 0.295455 0.275556
vt 0.306819 0.295238
vt 0.284092 0.216509
vt 0.295455 0.236191
vt 0.306819 0.255874
vt 0.318182 0.275556
vt 0.329546 0.295238
vt 0.295455 0.196826
vt 0.306819 0.216508
vt 0.318182 0.236191
vt 0.329546 0.255874
vt 0.340910 0.275556
vt 0.352273 0.295238
vt 0.545455 0.275556
vt 0.534091 0.255874
vt 0.522728 0.236191
vt 0.511364 0.216508
vt 0.500000 0.196826
vt 0.488637 0.177143
vt 0.556819 0.255874
vt 0.545455 0.236191
vt 0.568182 0.236191
vt 0.534091 0.216508
vt 0.556819 0.216508
vt 0.579546 0.216508
vt 0.522728 0.196826
vt 0.545455 0.196826
vt 0.568182 0.196826
vt 0.590909 0.196826
vt 0.511364 0.177143
vt 0.534091 0.177143
vt 0.556819 0.177143
vt 0.579546 0.177143
vt 0.602273 0.177143
vt 0.500000 0.157461
vt 0.522728 0.157461
vt 0.545455 0.157461
vt 0.568182 0.157461
vt 0.590909 0.157461
vt 0.613637 0.157461
vt 0.727273 0.275556
vt 0.715909 0.255874
vt 0.704546 0.236191
vt 0.693182 0.216508
vt 0.681818 0.196826
vt 0.670455 0.177143
vt 0.738637 0.255874
vt 0.727273 0.236191
vt 0.750000 0.236191
vt 0.715909 0.216508
vt 0.738637 0.216508
vt 0.761364 0.216508
vt 0.704546 0.196826
vt 0.727273 0.196826
vt 0.750000 0.196826
vt 0.772727 0.196826
vt 0.693182 0.177143
vt 0.715909 0.177143
vt 0.738637 0.177143
vt 0.761364 0.177143
vt 0.784091 0.177143
vt 0.681818 0.157461
vt 0.704546 0.157461
vt 0.727273 0.157461
vt 0.750000 0.157461
vt 0.772727 0.157461
vt 0.795455 0.157461
vt 0.920455 0.295238
vt 0.909091 0.275556
vt 0.897727 0.255874
vt 0.886364 0.236191
vt 0.875000 0.216508
vt 0.863636 0.196826
vt 0.852273 0.177143
vt 0.931818 0.275556
vt 0.920455 0.255874
vt 0.943182 0.255874
vt 0.909091 0.236191
vt 0.931818 0.236191
vt 0.954545 0.236191
vt 0.897727 0.216508
vt 0.920455 0.216508
vt 0.943182 0.216508
vt 0.965909 0.216509
vt 0.886364 0.196826
vt 0.909091 0.196826
vt 0.931818 0.196826
vt 0.954545 0.196826
vt 0.977273 0.196826
vt 0.875000 0.177143
vt 0.897727 0.177143
vt 0.920455 0.177143
vt 0.943182 0.177143
vt 0.965909 0.177143
vt 0.988636 0.177143
vt 0.863636 0.157461
vt 0.886364 0.157461
vt 0.909091 0.157461
vt 0.931818 0.157461
vt 0.954545 0.157461
vt 0.977273 0.157461
vt 1.000000 0.157461
vt 0.181819 0.275556
vt 0.170455 0.255874
vt 0.159092 0.236191
vt 0.147728 0.216508
vt 0.136364 0.196826
vt 0.125001 0.177143
vt 0.193183 0.255874
vt 0.181819 0.236191
vt 0.204546 0.236191
vt 0.170455 0.216508
vt 0.193183 0.216508
vt 0.215910 0.216508
vt 0.159092 0.196826
vt 0.181819 0.196826
vt 0.204546 0.196826
vt 0.227273 0.196826
vt 0.147728 0.177143
vt 0.170455 0.177143
vt 0.193183 0.177143
vt 0.215910 0.177143
vt 0.238637 0.177143
vt 0.136364 0.157461
vt 0.159092 0.157461
vt 0.181819 0.157461
vt 0.204546 0.157461
vt 0.227273 0.157461
vt 0.250001 0.157461
vt 0.363637 0.275556
vt 0.352273 0.255874
vt 0.340910 0.236191
vt 0.329546 0.216508
vt 0.318182 0.196826
vt 0.306819 0.177143
vt 0.375001 0.255874
vt 0.363637 0.236191
vt 0.386364 0.236191
vt 0.352273 0.216508
vt 0.375001 0.216508
vt 0.397728 0.216508
vt 0.340910 0.196826
vt 0.363637 0.196826
vt 0.386364 0.196826
vt 0.409092 0.196826
vt 0.329546 0.177143
vt 0.352273 0.177143
vt 0.375001 0.177143
vt 0.397728 0.177143
vt 0.420455 0.177143
vt 0.318182 0.157461
vt 0.340910 0.157461
vt 0.363637 0.157461
vt 0.386364 0.157461
vt 0.409092 0.157461
vt 0.431819 0.157461
vt 0.465910 0.137778
vt 0.477273 0.118096
vt 0.488637 0.137778
vt 0.488637 0.098413
vt 0.500000 0.118096
vt 0.500000 0.078731
vt 0.511364 0.098413
vt 0.511364 0.059048
vt 0.522728 0.078731
vt 0.522728 0.039365
vt 0.534091 0.059048
vt 0.545455 0.039365
vt 0.511364 0.137778
vt 0.522728 0.118096
vt 0.534091 0.137778
vt 0.534091 0.098413
vt 0.545455 0.118096
vt 0.556819 0.137778
vt 0.545455 0.078731
vt 0.556819 0.098413
vt 0.568182 0.118096
vt 0.579546 0.137778
vt 0.556819 0.059048
vt 0.568182 0.078731
vt 0.579546 0.098413
vt 0.590909 0.118096
vt 0.602273 0.137778
vt 0.568182 0.039365
vt 0.579546 0.059048
vt 0.590910 0.078731
vt 0.602273 0.098413
vt 0.613637 0.118096
vt 0.625000 0.137778
vt 0.647728 0.137778
vt 0.659091 0.118096
vt 0.670455 0.137778
vt 0.670455 0.098413
vt 0.681818 0.118096
vt 0.681818 0.078731
vt 0.693182 0.098413
vt 0.693182 0.059048
vt 0.704546 0.078731
vt 0.704546 0.039365
vt 0.715909 0.059048
vt 0.727273 0.039365
vt 0.693182 0.137778
vt 0.704546 0.118096
vt 0.715909 0.137778
vt 0.715909 0.098413
vt 0.727273 0.118096
vt 0.738637 0.137778
vt 0.727273 0.078731
vt 0.738637 0.098413
vt 0.750000 0.118096
vt 0.761364 0.137778
vt 0.738637 0.059048
vt 0.750000 0.078731
vt 0.761364 0.098413
vt 0.772727 0.118096
vt 0.784091 0.137778
vt 0.750000 0.039365
vt 0.761364 0.059048
vt 0.772727 0.078731
vt 0.784091 0.098413
vt 0.795455 0.118096
vt 0.806818 0.137778
vt 0.829546 0.137778
vt 0.840909 0.118096
vt 0.852273 0.137778
vt 0.852273 0.098413
vt 0.863636 0.118096
vt 0.863636 0.078731
vt 0.875000 0.098413
vt 0.875000 0.059048
vt 0.886364 0.078731
vt 0.886364 0.039365
vt 0.897727 0.059048
vt 0.909091 0.039365
vt 0.875000 0.137778
vt 0.886364 0.118096
vt 0.897727 0.137778
vt 0.897727 0.098413
vt 0.909091 0.118096
vt 0.920455 0.137778
vt 0.909091 0.078731
vt 0.920455 0.098413
vt 0.931818 0.118096
vt 0.943182 0.137778
vt 0.920455 0.059048
vt 0.931818 0.078731
vt 0.943182 0.098413
vt 0.954545 0.118096
vt 0.965909 0.137778
vt 0.931818 0.039365
vt 0.943182 0.059048
vt 0.954545 0.078731
vt 0.965909 0.098413
vt 0.977273 0.118096
vt 0.988636 0.137778
vt 0.443182 0.137778
vt 0.420455 0.137778
vt 0.397728 0.137778
vt 0.375001 0.137778
vt 0.352273 0.137778
vt 0.329546 0.137778
vt 0.306819 0.137778
vt 0.431819 0.118096
vt 0.409091 0.118096
vt 0.420455 0.098413
vt 0.386364 0.118096
vt 0.397728 0.098413
vt 0.409092 0.078731
vt 0.363637 0.118096
vt 0.375001 0.098413
vt 0.386364 0.078731
vt 0.397728 0.059048
vt 0.340910 0.118096
vt 0.352273 0.098413
vt 0.363637 0.078731
vt 0.375001 0.059048
vt 0.386364 0.039365
vt 0.318182 0.118096
vt 0.329546 0.098413
vt 0.340910 0.078731
vt 0.352273 0.059048
vt 0.363637 0.039365
vt 0.375001 0.019683
vt 0.295455 0.118096
vt 0.306819 0.098413
vt 0.318182 0.078731
vt 0.329546 0.059048
vt 0.340910 0.039365
vt 0.352273 0.019683
vt 0.363637 0.000000
vt 0.102274 0.137778
vt 0.113637 0.118096
vt 0.125001 0.137778
vt 0.125001 0.098413
vt 0.136365 0.118096
vt 0.136365 0.078731
vt 0.147728 0.098413
vt 0.147728 0.059048
vt 0.159092 0.078731
vt 0.159092 0.039365
vt 0.170455 0.059048
vt 0.181819 0.039365
vt 0.147728 0.137778
vt 0.159092 0.118096
vt 0.170455 0.137778
vt 0.170455 0.098413
vt 0.181819 0.118096
vt 0.193183 0.137778
vt 0.181819 0.078731
vt 0.193183 0.098413
vt 0.204546 0.118096
vt 0.215910 0.137778
vt 0.193183 0.059048
vt 0.204546 0.078731
vt 0.215910 0.098413
vt 0.227273 0.118096
vt 0.238637 0.137778
vt 0.204546 0.039365
vt 0.215910 0.059048
vt 0.227274 0.078731
vt 0.238637 0.098413
vt 0.250001 0.118096
vt 0.261364 0.137778
s 0
f 1/1 20/2 19/3
f 2/4 26/5 40/6
f 1/7 19/8 54/9
f 1/10 54/11 68/12
f 1/13 68/14 41/15
f 2/4 40/6 89/16
f 3/17 33/18 103/19
f 4/20 61/21 117/22
f 5/23 75/24 131/25
f 6/26 82/27 145/28
f 2/4 89/16 104/29
f 3/17 103/19 118/30
f 4/20 117/22 132/31
f 5/23 131/25 146/32
f 6/26 145/28 90/33
f 7/34 159/35 194/36
f 8/37 166/38 208/39
f 9/40 173/41 215/42
f 10/43 180/44 222/45
f 11/46 187/47 195/48
f 201/49 216/50 12/51
f 200/52 223/53 201/49
f 199/54 224/55 200/52
f 198/56 226/57 199/54
f 197/58 229/59 198/56
f 196/60 233/61 197/58
f 195/48 238/62 196/60
f 201/49 223/53 216/50
f 223/53 217/63 216/50
f 200/52 224/55 223/53
f 224/55 225/64 223/53
f 223/53 225/64 217/63
f 225/64 218/65 217/63
f 199/54 226/57 224/55
f 226/57 227/66 224/55
f 224/55 227/66 225/64
f 227/66 228/67 225/64
f 225/64 228/67 218/65
f 228/67 219/68 218/65
f 198/56 229/59 226/57
f 229/59 230/69 226/57
f 226/57 230/69 227/66
f 230/69 231/70 227/66
f 227/66 231/70 228/67
f 231/70 232/71 228/67
f 228/67 232/71 219/68
f 232/71 220/72 219/68
f 197/58 233/61 229/59
f 233/61 234/73 229/59
f 229/59 234/73 230/69
f 234/73 235/74 230/69
f 230/69 235/74 231/70
f 235/74 236/75 231/70
f 231/70 236/75 232/71
f 236/75 237/76 232/71
f 232/71 237/76 220/72
f 237/76 221/77 220/72
f 196/60 238/62 233/61
f 238/62 239/78 233/61
f 233/61 239/78 234/73
f 239/78 240/79 234/73
f 234/73 240/79 235/74
f 240/79 241/80 235/74
f 235/74 241/80 236/75
f 241/80 242/81 236/75
f 236/75 242/81 237/76
f 242/81 243/82 237/76
f 237/76 243/82 221/77
f 243/82 222/83 221/77
f 195/48 187/47 238/62
f 187/47 186/84 238/62
f 238/62 186/84 239/78
f 186/84 185/85 239/78
f 239/78 185/85 240/79
f 185/85 184/86 240/79
f 240/79 184/86 241/80
f 184/86 183/87 241/80
f 241/80 183/87 242/81
f 183/87 182/88 242/81
f 242/81 182/88 243/82
f 182/88 181/89 243/82
f 243/82 181/89 222/83
f 181/89 10/43 222/83
f 216/90 209/91 12/92
f 217/93 244/94 216/90
f 218/95 245/96 217/93
f 219/97 247/98 218/95
f 220/99 250/100 219/97
f 221/101 254/102 220/99
f 222/45 259/103 221/101
f 216/90 244/94 209/91
f 244/94 210/104 209/91
f 217/93 245/96 244/94
f 245/96 246/105 244/94
f 244/94 246/105 210/104
f 246/105 211/106 210/104
f 218/95 247/98 245/96
f 247/98 248/107 245/96
f 245/96 248/107 246/105
f 248/107 249/108 246/105
f 246/105 249/108 211/106
f 249/108 212/109 211/106
f 219/97 250/100 247/98
f 250/100 251/110 247/98
f 247/98 251/110 248/107
f 251/110 252/111 248/107
f 248/107 252/111 249/108
f 252/111 253/112 249/108
f 249/108 253/112 212/109
f 253/112 213/113 212/109
f 220/99 254/102 250/100
f 254/102 255/114 250/100
f 250/100 255/114 251/110
f 255/114 256/115 251/110
f 251/110 256/115 252/111
f 256/115 257/116 252/111
f 252/111 257/116 253/112
f 257/116 258/117 253/112
f 253/112 258/117 213/113
f 258/117 214/118 213/113
f 221/101 259/103 254/102
f 259/103 260/119 254/102
f 254/102 260/119 255/114
f 260/119 261/120 255/114
f 255/114 261/120 256/115
f 261/120 262/121 256/115
f 256/115 262/121 257/116
f 262/121 263/122 257/116
f 257/116 263/122 258/117
f 263/122 264/123 258/117
f 258/117 264/123 214/118
f 264/123 215/124 214/118
f 222/45 180/44 259/103
f 180/44 179/125 259/103
f 259/103 179/125 260/119
f 179/125 178/126 260/119
f 260/119 178/126 261/120
f 178/126 177/127 261/120
f 261/120 177/127 262/121
f 177/127 176/128 262/121
f 262/121 176/128 263/122
f 176/128 175/129 263/122
f 263/122 175/129 264/123
f 175/129 174/130 264/123
f 264/123 174/130 215/124
f 174/130 9/40 215/124
f 209/131 202/132 12/133
f 210/134 265/135 209/131
f 211/136 266/137 210/134
f 212/138 268/139 211/136
f 213/140 271/141 212/138
f 214/142 275/143 213/140
f 215/42 280/144 214/142
f 209/131 265/135 202/132
f 265/135 203/145 202/132
f 210/134 266/137 265/135
f 266/137 267/146 265/135
f 265/135 267/146 203/145
f 267/146 204/147 203/145
f 211/136 268/139 266/137
f 268/139 269/148 266/137
f 266/137 269/148 267/146
f 269/148 270/149 267/146
f 267/146 270/149 204/147
f 270/149 205/150 204/147
f 212/138 271/141 268/139
f 271/141 272/151 268/139
f 268/139 272/151 269/148
f 272/151 273/152 269/148
f 269/148 273/152 270/149
f 273/152 274/153 270/149
f 270/149 274/153 205/150
f 274/153 206/154 205/150
f 213/140 275/143 271/141
f 275/143 276/155 271/141
f 271/141 276/155 272/151
f 276/155 277/156 272/151
f 272/151 277/156 273/152
f 277/156 278/157 273/152
f 273/152 278/157 274/153
f 278/157 279/158 274/153
f 274/153 279/158 206/154
f 279/158 207/159 206/154
f 214/142 280/144 275/143
f 280/144 281/160 275/143
f 275/143 281/160 276/155
f 281/160 282/161 276/155
f 276/155 282/161 277/156
f 282/161 283/162 277/156
f 277/156 283/162 278/157
f 283/162 284/163 278/157
f 278/157 284/163 279/158
f 284/163 285/164 279/158
f 279/158 285/164 207/159
f 285/164 208/165 207/159
f 215/42 173/41 280/144
f 173/41 172/166 280/144
f 280/144 172/166 281/160
f 172/166 171/167 281/160
f 281/160 171/167 282/161
f 171/167 170/168 282/161
f 282/161 170/168 283/162
f 170/168 169/169 283/162
f 283/162 169/169 284/163
f 169/169 168/170 284/163
f 284/163 168/170 285/164
f 168/170 167/171 285/164
f 285/164 167/171 208/165
f 167/171 8/172 208/165
f 202/173 188/174 12/175
f 203/176 286/177 202/173
f 204/178 287/179 203/176
f 205/180 289/181 204/178
f 206/182 292/183 205/180
f 207/184 296/185 206/182
f 208/39 301/186 207/184
f 202/173 286/177 188/174
f 286/177 189/187 188/174
f 203/176 287/179 286/177
f 287/179 288/188 286/177
f 286/177 288/188 189/187
f 288/188 190/189 189/187
f 204/178 289/181 287/179
f 289/181 290/190 287/179
f 287/179 290/190 288/188
f 290/190 291/191 288/188
f 288/188 291/191 190/189
f 291/191 191/192 190/189
f 205/180 292/183 289/181
f 292/183 293/193 289/181
f 289/181 293/193 290/190
f 293/193 294/194 290/190
f 290/190 294/194 291/191
f 294/194 295/195 291/191
f 291/191 295/195 191/192
f 295/195 192/196 191/192
f 206/182 296/185 292/183
f 296/185 297/197 292/183
f 292/183 297/197 293/193
f 297/197 298/198 293/193
f 293/193 298/198 294/194
f 298/198 299/199 294/194
f 294/194 299/199 295/195
f 299/199 300/200 295/195
f 295/195 300/200 192/196
f 300/200 193/201 192/196
f 207/184 301/186 296/185
f 301/186 302/202 296/185
f 296/185 302/202 297/197
f 302/202 303/203 297/197
f 297/197 303/203 298/198
f 303/203 304/204 298/198
f 298/198 304/204 299/199
f 304/204 305/205 299/199
f 299/199 305/205 300/200
f 305/205 306/206 300/200
f 300/200 306/206 193/201
f 306/206 194/207 193/201
f 208/39 166/38 301/186
f 166/38 165/208 301/186
f 301/186 165/208 302/202
f 165/208 164/209 302/202
f 302/202 164/209 303/203
f 164/209 163/210 303/203
f 303/203 163/210 304/204
f 163/210 162/211 304/204
f 304/204 162/211 305/205
f 162/211 161/212 305/205
f 305/205 161/212 306/206
f 161/212 160/213 306/206
f 306/206 160/213 194/207
f 160/213 7/34 194/207
f 188/214 201/215 12/216
f 189/217 307/218 188/214
f 190/219 308/220 189/217
f 191/221 310/222 190/219
f 192/223 313/224 191/221
f 193/225 317/226 192/223
f 194/36 322/227 193/225
f 188/214 307/218 201/215
f 307/218 200/228 201/215
f 189/217 308/220 307/218
f 308/220 309/229 307/218
f 307/218 309/229 200/228
f 309/229 199/230 200/228
f 190/219 310/222 308/220
f 310/222 311/231 308/220
f 308/220 311/231 309/229
f 311/231 312/232 309/229
f 309/229 312/232 199/230
f 312/232 198/233 199/230
f 191/221 313/224 310/222
f 313/224 314/234 310/222
f 310/222 314/234 311/231
f 314/234 315/235 311/231
f 311/231 315/235 312/232
f 315/235 316/236 312/232
f 312/232 316/236 198/233
f 316/236 197/237 198/233
f 192/223 317/226 313/224
f 317/226 318/238 313/224
f 313/224 318/238 314/234
f 318/238 319/239 314/234
f 314/234 319/239 315/235
f 319/239 320/240 315/235
f 315/235 320/240 316/236
f 320/240 321/241 316/236
f 316/236 321/241 197/237
f 321/241 196/242 197/237
f 193/225 322/227 317/226
f 322/227 323/243 317/226
f 317/226 323/243 318/238
f 323/243 324/244 318/238
f 318/238 324/244 319/239
f 324/244 325/245 319/239
f 319/239 325/245 320/240
f 325/245 326/246 320/240
f 320/240 326/246 321/241
f 326/246 327/247 321/241
f 321/241 327/247 196/242
f 327/247 195/248 196/242
f 194/36 159/35 322/227
f 159/35 158/249 322/227
f 322/227 158/249 323/243
f 158/249 157/250 323/243
f 323/243 157/250 324/244
f 157/250 156/251 324/244
f 324/244 156/251 325/245
f 156/251 155/252 325/245
f 325/245 155/252 326/246
f 155/252 154/253 326/246
f 326/246 154/253 327/247
f 154/253 153/254 327/247
f 327/247 153/254 195/248
f 153/254 11/46 195/248
f 96/255 187/47 11/46
f 95/256 328/257 96/255
f 94/258 329/259 95/256
f 93/260 331/261 94/258
f 92/262 334/263 93/260
f 91/264 338/265 92/262
f 90/33 343/266 91/264
f 96/255 328/257 187/47
f 328/257 186/84 187/47
f 95/256 329/259 328/257
f 329/259 330/267 328/257
f 328/257 330/267 186/84
f 330/267 185/85 186/84
f 94/258 331/261 329/259
f 331/261 332/268 329/259
f 329/259 332/268 330/267
f 332/268 333/269 330/267
f 330/267 333/269 185/85
f 333/269 184/86 185/85
f 93/260 334/263 331/261
f 334/263 335/270 331/261
f 331/261 335/270 332/268
f 335/270 336/271 332/268
f 332/268 336/271 333/269
f 336/271 337/272 333/269
f 333/269 337/272 184/86
f 337/272 183/87 184/86
f 92/262 338/265 334/263
f 338/265 339/273 334/263
f 334/263 339/273 335/270
f 339/273 340/274 335/270
f 335/270 340/274 336/271
f 340/274 341/275 336/271
f 336/271 341/275 337/272
f 341/275 342/276 337/272
f 337/272 342/276 183/87
f 342/276 182/88 183/87
f 91/264 343/266 338/265
f 343/266 344/277 338/265
f 338/265 344/277 339/273
f 344/277 345/278 339/273
f 339/273 345/278 340/274
f 345/278 346/279 340/274
f 340/274 346/279 341/275
f 346/279 347/280 341/275
f 341/275 347/280 342/276
f 347/280 348/281 342/276
f 342/276 348/281 182/88
f 348/281 181/89 182/88
f 90/33 145/28 343/266
f 145/28 144/282 343/266
f 343/266 144/282 344/277
f 144/282 143/283 344/277
f 344/277 143/283 345/278
f 143/283 142/284 345/278
f 345/278 142/284 346/279
f 142/284 141/285 346/279
f 346/279 141/285 347/280
f 141/285 140/286 347/280
f 347/280 140/286 348/281
f 140/286 139/287 348/281
f 348/281 139/287 181/89
f 139/287 10/43 181/89
f 152/288 180/44 10/43
f 151/289 349/290 152/288
f 150/291 350/292 151/289
f 149/293 352/294 150/291
f 148/295 355/296 149/293
f 147/297 359/298 148/295
f 146/32 364/299 147/297
f 152/288 349/290 180/44
f 349/290 179/125 180/44
f 151/289 350/292 349/290
f 350/292 351/300 349/290
f 349/290 351/300 179/125
f 351/300 178/126 179/125
f 150/291 352/294 350/292
f 352/294 353/301 350/292
f 350/292 353/301 351/300
f 353/301 354/302 351/300
f 351/300 354/302 178/126
f 354/302 177/127 178/126
f 149/293 355/296 352/294
f 355/296 356/303 352/294
f 352/294 356/303 353/301
f 356/303 357/304 353/301
f 353/301 357/304 354/302
f 357/304 358/305 354/302
f 354/302 358/305 177/127
f 358/305 176/128 177/127
f 148/295 359/298 355/296
f 359/298 360/306 355/296
f 355/296 360/306 356/303
f 360/306 361/307 356/303
f 356/303 361/307 357/304
f 361/307 362/308 357/304
f 357/304 362/308 358/305
f 362/308 363/309 358/305
f 358/305 363/309 176/128
f 363/309 175/129 176/128
f 147/297 364/299 359/298
f 364/299 365/310 359/298
f 359/298 365/310 360/306
f 365/310 366/311 360/306
f 360/306 366/311 361/307
f 366/311 367/312 361/307
f 361/307 367/312 362/308
f 367/312 368/313 362/308
f 362/308 368/313 363/309
f 368/313 369/314 363/309
f 363/309 369/314 175/129
f 369/314 174/130 175/129
f 146/32 131/25 364/299
f 131/25 130/315 364/299
f 364/299 130/315 365/310
f 130/315 129/316 365/310
f 365/310 129/316 366/311
f 129/316 128/317 366/311
f 366/311 128/317 367/312
f 128/317 127/318 367/312
f 367/312 127/318 368/313
f 127/318 126/319 368/313
f 368/313 126/319 369/314
f 126/319 125/320 369/314
f 369/314 125/320 174/130
f 125/320 9/40 174/130
f 138/321 173/41 9/40
f 137/322 370/323 138/321
f 136/324 371/325 137/322
f 135/326 373/327 136/324
f 134/328 376/329 135/326
f 133/330 380/331 134/328
f 132/31 385/332 133/330
f 138/321 370/323 173/41
f 370/323 172/166 173/41
f 137/322 371/325 370/323
f 371/325 372/333 370/323
f 370/323 372/333 172/166
f 372/333 171/167 172/166
f 136/324 373/327 371/325
f 373/327 374/334 371/325
f 371/325 374/334 372/333
f 374/334 375/335 372/333
f 372/333 375/335 171/167
f 375/335 170/168 171/167
f 135/326 376/329 373/327
f 376/329 377/336 373/327
f 373/327 377/336 374/334
f 377/336 378/337 374/334
f 374/334 378/337 375/335
f 378/337 379/338 375/335
f 375/335 379/338 170/168
f 379/338 169/169 170/168
f 134/328 380/331 376/329
f 380/331 381/339 376/329
f 376/329 381/339 377/336
f 381/339 382/340 377/336
f 377/336 382/340 378/337
f 382/340 383/341 378/337
f 378/337 383/341 379/338
f 383/341 384/342 379/338
f 379/338 384/342 169/169
f 384/342 168/170 169/169
f 133/330 385/332 380/331
f 385/332 386/343 380/331
f 380/331 386/343 381/339
f 386/343 387/344 381/339
f 381/339 387/344 382/340
f 387/344 388/345 382/340
f 382/340 388/345 383/341
f 388/345 389/346 383/341
f 383/341 389/346 384/342
f 389/346 390/347 384/342
f 384/342 390/347 168/170
f 390/347 167/171 168/170
f 132/31 117/22 385/332
f 117/22 116/348 385/332
f 385/332 116/348 386/343
f 116/348 115/349 386/343
f 386/343 115/349 387/344
f 115/349 114/350 387/344
f 387/344 114/350 388/345
f 114/350 113/351 388/345
f 388/345 113/351 389/346
f 113/351 112/352 389/346
f 389/346 112/352 390/347
f 112/352 111/353 390/347
f 390/347 111/353 167/171
f 111/353 8/172 167/171
f 124/354 166/38 8/37
f 123/355 391/356 124/354
f 122/357 392/358 123/355
f 121/359 394/360 122/357
f 120/361 397/362 121/359
f 119/363 401/364 120/361
f 118/30 406/365 119/363
f 124/354 391/356 166/38
f 391/356 165/208 166/38
f 123/355 392/358 391/356
f 392/358 393/366 391/356
f 391/356 393/366 165/208
f 393/366 164/209 165/208
f 122/357 394/360 392/358
f 394/360 395/367 392/358
f 392/358 395/367 393/366
f 395/367 396/368 393/366
f 393/366 396/368 164/209
f 396/368 163/210 164/209
f 121/359 397/362 394/360
f 397/362 398/369 394/360
f 394/360 398/369 395/367
f 398/369 399/370 395/367
f 395/367 399/370 396/368
f 399/370 400/371 396/368
f 396/368 400/371 163/210
f 400/371 162/211 163/210
f 120/361 401/364 397/362
f 401/364 402/372 397/362
f 397/362 402/372 398/369
f 402/372 403/373 398/369
f 398/369 403/373 399/370
f 403/373 404/374 399/370
f 399/370 404/374 400/371
f 404/374 405/375 400/371
f 400/371 405/375 162/211
f 405/375 161/212 162/211
f 119/363 406/365 401/364
f 406/365 407/376 401/364
f 401/364 407/376 402/372
f 407/376 408/377 402/372
f 402/372 408/377 403/373
f 408/377 409/378 403/373
f 403/373 409/378 404/374
f 409/378 410/379 404/374
f 404/374 410/379 405/375
f 410/379 411/380 405/375
f 405/375 411/380 161/212
f 411/380 160/213 161/212
f 118/30 103/19 406/365
f 103/19 102/381 406/365
f 406/365 102/381 407/376
f 102/381 101/382 407/376
f 407/376 101/382 408/377
f 101/382 100/383 408/377
f 408/377 100/383 409/378
f 100/383 99/384 409/378
f 409/378 99/384 410/379
f 99/384 98/385 410/379
f 410/379 98/385 411/380
f 98/385 97/386 411/380
f 411/380 97/386 160/213
f 97/386 7/34 160/213
f 110/387 159/35 7/34
f 109/388 412/389 110/387
f 108/390 413/391 109/388
f 107/392 415/393 108/390
f 106/394 418/395 107/392
f 105/396 422/397 106/394
f 104/29 427/398 105/396
f 110/387 412/389 159/35
f 412/389 158/249 159/35
f 109/388 413/391 412/389
f 413/391 414/399 412/389
f 412/389 414/399 158/249
f 414/399 157/250 158/249
f 108/390 415/393 413/391
f 415/393 416/400 413/391
f 413/391 416/400 414/399
f 416/400 417/401 414/399
f 414/399 417/401 157/250
f 417/401 156/251 157/250
f 107/392 418/395 415/393
f 418/395 419/402 415/393
f 415/393 419/402 416/400
f 419/402 420/403 416/400
f 416/400 420/403 417/401
f 420/403 421/404 417/401
f 417/401 421/404 156/251
f 421/404 155/252 156/251
f 106/394 422/397 418/395
f 422/397 423/405 418/395
f 418/395 423/405 419/402
f 423/405 424/406 419/402
f 419/402 424/406 420/403
f 424/406 425/407 420/403
f 420/403 425/407 421/404
f 425/407 426/408 421/404
f 421/404 426/408 155/252
f 426/408 154/253 155/252
f 105/396 427/398 422/397
f 427/398 428/409 422/397
f 422/397 428/409 423/405
f 428/409 429/410 423/405
f 423/405 429/410 424/406
f 429/410 430/411 424/406
f 424/406 430/411 425/407
f 430/411 431/412 425/407
f 425/407 431/412 426/408
f 431/412 432/413 426/408
f 426/408 432/413 154/253
f 432/413 153/254 154/253
f 104/29 89/16 427/398
f 89/16 88/414 427/398
f 427/398 88/414 428/409
f 88/414 87/415 428/409
f 428/409 87/415 429/410
f 87/415 86/416 429/410
f 429/410 86/416 430/411
f 86/416 85/417 430/411
f 430/411 85/417 431/412
f 85/417 84/418 431/412
f 431/412 84/418 432/413
f 84/418 83/419 432/413
f 432/413 83/419 153/254
f 83/419 11/46 153/254
f 139/287 152/288 10/43
f 140/286 433/420 139/287
f 141/285 434/421 140/286
f 142/284 436/422 141/285
f 143/283 439/423 142/284
f 144/282 443/424 143/283
f 145/28 448/425 144/282
f 139/287 433/420 152/288
f 433/420 151/289 152/288
f 140/286 434/421 433/420
f 434/421 435/426 433/420
f 433/420 435/426 151/289
f 435/426 150/291 151/289
f 141/285 436/422 434/421
f 436/422 437/427 434/421
f 434/421 437/427 435/426
f 437/427 438/428 435/426
f 435/426 438/428 150/291
f 438/428 149/293 150/291
f 142/284 439/423 436/422
f 439/423 440/429 436/422
f 436/422 440/429 437/427
f 440/429 441/430 437/427
f 437/427 441/430 438/428
f 441/430 442/431 438/428
f 438/428 442/431 149/293
f 442/431 148/295 149/293
f 143/283 443/424 439/423
f 443/424 444/432 439/423
f 439/423 444/432 440/429
f 444/432 445/433 440/429
f 440/429 445/433 441/430
f 445/433 446/434 441/430
f 441/430 446/434 442/431
f 446/434 447/435 442/431
f 442/431 447/435 148/295
f 447/435 147/297 148/295
f 144/282 448/425 443/424
f 448/425 449/436 443/424
f 443/424 449/436 444/432
f 449/436 450/437 444/432
f 444/432 450/437 445/433
f 450/437 451/438 445/433
f 445/433 451/438 446/434
f 451/438 452/439 446/434
f 446/434 452/439 447/435
f 452/439 453/440 447/435
f 447/435 453/440 147/297
f 453/440 146/32 147/297
f 145/28 82/27 448/425
f 82/27 81/441 448/425
f 448/425 81/441 449/436
f 81/441 80/442 449/436
f 449/436 80/442 450/437
f 80/442 79/443 450/437
f 450/437 79/443 451/438
f 79/443 78/444 451/438
f 451/438 78/444 452/439
f 78/444 77/445 452/439
f 452/439 77/445 453/440
f 77/445 76/446 453/440
f 453/440 76/446 146/32
f 76/446 5/23 146/32
f 125/320 138/321 9/40
f 126/319 454/447 125/320
f 127/318 455/448 126/319
f 128/317 457/449 127/318
f 129/316 460/450 128/317
f 130/315 464/451 129/316
f 131/25 469/452 130/315
f 125/320 454/447 138/321
f 454/447 137/322 138/321
f 126/319 455/448 454/447
f 455/448 456/453 454/447
f 454/447 456/453 137/322
f 456/453 136/324 137/322
f 127/318 457/449 455/448
f 457/449 458/454 455/448
f 455/448 458/454 456/453
f 458/454 459/455 456/453
f 456/453 459/455 136/324
f 459/455 135/326 136/324
f 128/317 460/450 457/449
f 460/450 461/456 457/449
f 457/449 461/456 458/454
f 461/456 462/457 458/454
f 458/454 462/457 459/455
f 462/457 463/458 459/455
f 459/455 463/458 135/326
f 463/458 134/328 135/326
f 129/316 464/451 460/450
f 464/451 465/459 460/450
f 460/450 465/459 461/456
f 465/459 466/460 461/456
f 461/456 466/460 462/457
f 466/460 467/461 462/457
f 462/457 467/461 463/458
f 467/461 468/462 463/458
f 463/458 468/462 134/328
f 468/462 133/330 134/328
f 130/315 469/452 464/451
f 469/452 470/463 464/451
f 464/451 470/463 465/459
f 470/463 471/464 465/459
f 465/459 471/464 466/460
f 471/464 472/465 466/460
f 466/460 472/465 467/461
f 472/465 473/466 467/461
f 467/461 473/466 468/462
f 473/466 474/467 468/462
f 468/462 474/467 133/330
f 474/467 132/31 133/330
f 131/25 75/24 469/452
f 75/24 74/468 469/452
f 469/452 74/468 470/463
f 74/468 73/469 470/463
f 470/463 73/469 471/464
f 73/469 72/470 471/464
f 471/464 72/470 472/465
f 72/470 71/471 472/465
f 472/465 71/471 473/466
f 71/471 70/472 473/466
f 473/466 70/472 474/467
f 70/472 69/473 474/467
f 474/467 69/473 132/31
f 69/473 4/20 132/31
f 111/353 124/474 8/172
f 112/352 475/475 111/353
f 113/351 476/476 112/352
f 114/350 478/477 113/351
f 115/349 481/478 114/350
f 116/348 485/479 115/349
f 117/22 490/480 116/348
f 111/353 475/475 124/474
f 475/475 123/481 124/474
f 112/352 476/476 475/475
f 476/476 477/482 475/475
f 475/475 477/482 123/481
f 477/482 122/483 123/481
f 113/351 478/477 476/476
f 478/477 479/484 476/476
f 476/476 479/484 477/482
f 479/484 480/485 477/482
f 477/482 480/485 122/483
f 480/485 121/486 122/483
f 114/350 481/478 478/477
f 481/478 482/487 478/477
f 478/477 482/487 479/484
f 482/487 483/488 479/484
f 479/484 483/488 480/485
f 483/488 484/489 480/485
f 480/485 484/489 121/486
f 484/489 120/490 121/486
f 115/349 485/479 481/478
f 485/479 486/491 481/478
f 481/478 486/491 482/487
f 486/491 487/492 482/487
f 482/487 487/492 483/488
f 487/492 488/493 483/488
f 483/488 488/493 484/489
f 488/493 489/494 484/489
f 484/489 489/494 120/490
f 489/494 119/495 120/490
f 116/348 490/480 485/479
f 490/480 491/496 485/479
f 485/479 491/496 486/491
f 491/496 492/497 486/491
f 486/491 492/497 487/492
f 492/497 493/498 487/492
f 487/492 493/498 488/493
f 493/498 494/499 488/493
f 488/493 494/499 489/494
f 494/499 495/500 489/494
f 489/494 495/500 119/495
f 495/500 118/501 119/495
f 117/22 61/21 490/480
f 61/21 60/502 490/480
f 490/480 60/502 491/496
f 60/502 59/503 491/496
f 491/496 59/503 492/497
f 59/503 58/504 492/497
f 492/497 58/504 493/498
f 58/504 57/505 493/498
f 493/498 57/505 494/499
f 57/505 56/506 494/499
f 494/499 56/506 495/500
f 56/506 55/507 495/500
f 495/500 55/507 118/501
f 55/507 3/508 118/501
f 97/386 110/387 7/34
f 98/385 496/509 97/386
f 99/384 497/510 98/385
f 100/383 499/511 99/384
f 101/382 502/512 100/383
f 102/381 506/513 101/382
f 103/19 511/514 102/381
f 97/386 496/509 110/387
f 496/509 109/388 110/387
f 98/385 497/510 496/509
f 497/510 498/515 496/509
f 496/509 498/515 109/388
f 498/515 108/390 109/388
f 99/384 499/511 497/510
f 499/511 500/516 497/510
f 497/510 500/516 498/515
f 500/516 501/517 498/515
f 498/515 501/517 108/390
f 501/517 107/392 108/390
f 100/383 502/512 499/511
f 502/512 503/518 499/511
f 499/511 503/518 500/516
f 503/518 504/519 500/516
f 500/516 504/519 501/517
f 504/519 505/520 501/517
f 501/517 505/520 107/392
f 505/520 106/394 107/392
f 101/382 506/513 502/512
f 506/513 507/521 502/512
f 502/512 507/521 503/518
f 507/521 508/522 503/518
f 503/518 508/522 504/519
f 508/522 509/523 504/519
f 504/519 509/523 505/520
f 509/523 510/524 505/520
f 505/520 510/524 106/394
f 510/524 105/396 106/394
f 102/381 511/514 506/513
f 511/514 512/525 506/513
f 506/513 512/525 507/521
f 512/525 513/526 507/521
f 507/521 513/526 508/522
f 513/526 514/527 508/522
f 508/522 514/527 509/523
f 514/527 515/528 509/523
f 509/523 515/528 510/524
f 515/528 516/529 510/524
f 510/524 516/529 105/396
f 516/529 104/29 105/396
f 103/19 33/18 511/514
f 33/18 32/530 511/514
f 511/514 32/530 512/525
f 32/530 31/531 512/525
f 512/525 31/531 513/526
f 31/531 30/532 513/526
f 513/526 30/532 514/527
f 30/532 29/533 514/527
f 514/527 29/533 515/528
f 29/533 28/534 515/528
f 515/528 28/534 516/529
f 28/534 27/535 516/529
f 516/529 27/535 104/29
f 27/535 2/4 104/29
f 83/419 96/255 11/46
f 84/418 517/536 83/419
f 85/417 518/537 84/418
f 86/416 520/538 85/417
f 87/415 523/539 86/416
f 88/414 527/540 87/415
f 89/16 532/541 88/414
f 83/419 517/536 96/255
f 517/536 95/256 96/255
f 84/418 518/537 517/536
f 518/537 519/542 517/536
f 517/536 519/542 95/256
f 519/542 94/258 95/256
f 85/417 520/538 518/537
f 520/538 521/543 518/537
f 518/537 521/543 519/542
f 521/543 522/544 519/542
f 519/542 522/544 94/258
f 522/544 93/260 94/258
f 86/416 523/539 520/538
f 523/539 524/545 520/538
f 520/538 524/545 521/543
f 524/545 525/546 521/543
f 521/543 525/546 522/544
f 525/546 526/547 522/544
f 522/544 526/547 93/260
f 526/547 92/262 93/260
f 87/415 527/540 523/539
f 527/540 528/548 523/539
f 523/539 528/548 524/545
f 528/548 529/549 524/545
f 524/545 529/549 525/546
f 529/549 530/550 525/546
f 525/546 530/550 526/547
f 530/550 531/551 526/547
f 526/547 531/551 92/262
f 531/551 91/264 92/262
f 88/414 532/541 527/540
f 532/541 533/552 527/540
f 527/540 533/552 528/548
f 533/552 534/553 528/548
f 528/548 534/553 529/549
f 534/553 535/554 529/549
f 529/549 535/554 530/550
f 535/554 536/555 530/550
f 530/550 536/555 531/551
f 536/555 537/556 531/551
f 531/551 537/556 91/264
f 537/556 90/33 91/264
f 89/16 40/6 532/541
f 40/6 39/557 532/541
f 532/541 39/557 533/552
f 39/557 38/558 533/552
f 533/552 38/558 534/553
f 38/558 37/559 534/553
f 534/553 37/559 535/554
f 37/559 36/560 535/554
f 535/554 36/560 536/555
f 36/560 35/561 536/555
f 536/555 35/561 537/556
f 35/561 34/562 537/556
f 537/556 34/562 90/33
f 34/562 6/26 90/33
f 47/563 82/27 6/26
f 46/564 538/565 47/563
f 45/566 539/567 46/564
f 44/568 541/569 45/566
f 43/570 544/571 44/568
f 42/572 548/573 43/570
f 41/15 553/574 42/572
f 47/563 538/565 82/27
f 538/565 81/441 82/27
f 46/564 539/567 538/565
f 539/567 540/575 538/565
f 538/565 540/575 81/441
f 540/575 80/442 81/441
f 45/566 541/569 539/567
f 541/569 542/576 539/567
f 539/567 542/576 540/575
f 542/576 543/577 540/575
f 540/575 543/577 80/442
f 543/577 79/443 80/442
f 44/568 544/571 541/569
f 544/571 545/578 541/569
f 541/569 545/578 542/576
f 545/578 546/579 542/576
f 542/576 546/579 543/577
f 546/579 547/580 543/577
f 543/577 547/580 79/443
f 547/580 78/444 79/443
f 43/570 548/573 544/571
f 548/573 549/581 544/571
f 544/571 549/581 545/578
f 549/581 550/582 545/578
f 545/578 550/582 546/579
f 550/582 551/583 546/579
f 546/579 551/583 547/580
f 551/583 552/584 547/580
f 547/580 552/584 78/444
f 552/584 77/445 78/444
f 42/572 553/574 548/573
f 553/574 554/585 548/573
f 548/573 554/585 549/581
f 554/585 555/586 549/581
f 549/581 555/586 550/582
f 555/586 556/587 550/582
f 550/582 556/587 551/583
f 556/587 557/588 551/583
f 551/583 557/588 552/584
f 557/588 558/589 552/584
f 552/584 558/589 77/445
f 558/589 76/446 77/445
f 41/15 68/14 553/574
f 68/14 67/590 553/574
f 553/574 67/590 554/585
f 67/590 66/591 554/585
f 554/585 66/591 555/586
f 66/591 65/592 555/586
f 555/586 65/592 556/587
f 65/592 64/593 556/587
f 556/587 64/593 557/588
f 64/593 63/594 557/588
f 557/588 63/594 558/589
f 63/594 62/595 558/589
f 558/589 62/595 76/446
f 62/595 5/23 76/446
f 62/596 75/24 5/23
f 63/597 559/598 62/596
f 64/599 560/600 63/597
f 65/601 562/602 64/599
f 66/603 565/604 65/601
f 67/605 569/606 66/603
f 68/12 574/607 67/605
f 62/596 559/598 75/24
f 559/598 74/468 75/24
f 63/597 560/600 559/598
f 560/600 561/608 559/598
f 559/598 561/608 74/468
f 561/608 73/469 74/468
f 64/599 562/602 560/600
f 562/602 563/609 560/600
f 560/600 563/609 561/608
f 563/609 564/610 561/608
f 561/608 564/610 73/469
f 564/610 72/470 73/469
f 65/601 565/604 562/602
f 565/604 566/611 562/602
f 562/602 566/611 563/609
f 566/611 567/612 563/609
f 563/609 567/612 564/610
f 567/612 568/613 564/610
f 564/610 568/613 72/470
f 568/613 71/471 72/470
f 66/603 569/606 565/604
f 569/606 570/614 565/604
f 565/604 570/614 566/611
f 570/614 571/615 566/611
f 566/611 571/615 567/612
f 571/615 572/616 567/612
f 567/612 572/616 568/613
f 572/616 573/617 568/613
f 568/613 573/617 71/471
f 573/617 70/472 71/471
f 67/605 574/607 569/606
f 574/607 575/618 569/606
f 569/606 575/618 570/614
f 575/618 576/619 570/614
f 570/614 576/619 571/615
f 576/619 577/620 571/615
f 571/615 577/620 572/616
f 577/620 578/621 572/616
f 572/616 578/621 573/617
f 578/621 579/622 573/617
f 573/617 579/622 70/472
f 579/622 69/473 70/472
f 68/12 54/11 574/607
f 54/11 53/623 574/607
f 574/607 53/623 575/618
f 53/623 52/624 575/618
f 575/618 52/624 576/619
f 52/624 51/625 576/619
f 576/619 51/625 577/620
f 51/625 50/626 577/620
f 577/620 50/626 578/621
f 50/626 49/627 578/621
f 578/621 49/627 579/622
f 49/627 48/628 579/622
f 579/622 48/628 69/473
f 48/628 4/20 69/473
f 48/629 61/21 4/20
f 49/630 580/631 48/629
f 50/632 581/633 49/630
f 51/634 583/635 50/632
f 52/636 586/637 51/634
f 53/638 590/639 52/636
f 54/9 595/640 53/638
f 48/629 580/631 61/21
f 580/631 60/502 61/21
f 49/630 581/633 580/631
f 581/633 582/641 580/631
f 580/631 582/641 60/502
f 582/641 59/503 60/502
f 50/632 583/635 581/633
f 583/635 584/642 581/633
f 581/633 584/642 582/641
f 584/642 585/643 582/641
f 582/641 585/643 59/503
f 585/643 58/504 59/503
f 51/634 586/637 583/635
f 586/637 587/644 583/635
f 583/635 587/644 584/642
f 587/644 588/645 584/642
f 584/642 588/645 585/643
f 588/645 589/646 585/643
f 585/643 589/646 58/504
f 589/646 57/505 58/504
f 52/636 590/639 586/637
f 590/639 591/647 586/637
f 586/637 591/647 587/644
f 591/647 592/648 587/644
f 587/644 592/648 588/645
f 592/648 593/649 588/645
f 588/645 593/649 589/646
f 593/649 594/650 589/646
f 589/646 594/650 57/505
f 594/650 56/506 57/505
f 53/638 595/640 590/639
f 595/640 596/651 590/639
f 590/639 596/651 591/647
f 596/651 597/652 591/647
f 591/647 597/652 592/648
f 597/652 598/653 592/648
f 592/648 598/653 593/649
f 598/653 599/654 593/649
f 593/649 599/654 594/650
f 599/654 600/655 594/650
f 594/650 600/655 56/506
f 600/655 55/507 56/506
f 54/9 19/8 595/640
f 19/8 18/656 595/640
f 595/640 18/656 596/651
f 18/656 17/657 596/651
f 596/651 17/657 597/652
f 17/657 16/658 597/652
f 597/652 16/658 598/653
f 16/658 15/659 598/653
f 598/653 15/659 599/654
f 15/659 14/660 599/654
f 599/654 14/660 600/655
f 14/660 13/661 600/655
f 600/655 13/661 55/507
f 13/661 3/508 55/507
f 34/562 47/662 6/26
f 35/561 601/663 34/562
f 36/560 602/664 35/561
f 37/559 604/665 36/560
f 38/558 607/666 37/559
f 39/557 611/667 38/558
f 40/6 616/668 39/557
f 34/562 601/663 47/662
f 601/663 46/669 47/662
f 35/561 602/664 601/663
f 602/664 603/670 601/663
f 601/663 603/670 46/669
f 603/670 45/671 46/669
f 36/560 604/665 602/664
f 604/665 605/672 602/664
f 602/664 605/672 603/670
f 605/672 606/673 603/670
f 603/670 606/673 45/671
f 606/673 44/674 45/671
f 37/559 607/666 604/665
f 607/666 608/675 604/665
f 604/665 608/675 605/672
f 608/675 609/676 605/672
f 605/672 609/676 606/673
f 609/676 610/677 606/673
f 606/673 610/677 44/674
f 610/677 43/678 44/674
f 38/558 611/667 607/666
f 611/667 612/679 607/666
f 607/666 612/679 608/675
f 612/679 613/680 608/675
f 608/675 613/680 609/676
f 613/680 614/681 609/676
f 609/676 614/681 610/677
f 614/681 615/682 610/677
f 610/677 615/682 43/678
f 615/682 42/683 43/678
f 39/557 616/668 611/667
f 616/668 617/684 611/667
f 611/667 617/684 612/679
f 617/684 618/685 612/679
f 612/679 618/685 613/680
f 618/685 619/686 613/680
f 613/680 619/686 614/681
f 619/686 620/687 614/681
f 614/681 620/687 615/682
f 620/687 621/688 615/682
f 615/682 621/688 42/683
f 621/688 41/689 42/683
f 40/6 26/5 616/668
f 26/5 25/690 616/668
f 616/668 25/690 617/684
f 25/690 24/691 617/684
f 617/684 24/691 618/685
f 24/691 23/692 618/685
f 618/685 23/692 619/686
f 23/692 22/693 619/686
f 619/686 22/693 620/687
f 22/693 21/694 620/687
f 620/687 21/694 621/688
f 21/694 20/695 621/688
f 621/688 20/695 41/689
f 20/695 1/696 41/689
f 13/697 33/18 3/17
f 14/698 622/699 13/697
f 15/700 623/701 14/698
f 16/702 625/703 15/700
f 17/704 628/705 16/702
f 18/706 632/707 17/704
f 19/3 637/708 18/706
f 13/697 622/699 33/18
f 622/699 32/530 33/18
f 14/698 623/701 622/699
f 623/701 624/709 622/699
f 622/699 624/709 32/530
f 624/709 31/531 32/530
f 15/700 625/703 623/701
f 625/703 626/710 623/701
f 623/701 626/710 624/709
f 626/710 627/711 624/709
f 624/709 627/711 31/531
f 627/711 30/532 31/531
f 16/702 628/705 625/703
f 628/705 629/712 625/703
f 625/703 629/712 626/710
f 629/712 630/713 626/710
f 626/710 630/713 627/711
f 630/713 631/714 627/711
f 627/711 631/714 30/532
f 631/714 29/533 30/532
f 17/704 632/707 628/705
f 632/707 633/715 628/705
f 628/705 633/715 629/712
f 633/715 634/716 629/712
f 629/712 634/716 630/713
f 634/716 635/717 630/713
f 630/713 635/717 631/714
f 635/717 636/718 631/714
f 631/714 636/718 29/533
f 636/718 28/534 29/533
f 18/706 637/708 632/707
f 637/708 638/719 632/707
f 632/707 638/719 633/715
f 638/719 639/720 633/715
f 633/715 639/720 634/716
f 639/720 640/721 634/716
f 634/716 640/721 635/717
f 640/721 641/722 635/717
f 635/717 641/722 636/718
f 641/722 642/723 636/718
f 636/718 642/723 28/534
f 642/723 27/535 28/534
f 19/3 20/2 637/708
f 20/2 21/724 637/708
f 637/708 21/724 638/719
f 21/724 22/725 638/719
f 638/719 22/725 639/720
f 22/725 23/726 639/720
f 639/720 23/726 640/721
f 23/726 24/727 640/721
f 640/721 24/727 641/722
f 24/727 25/728 641/722
f 641/722 25/728 642/723
f 25/728 26/729 642/723
f 642/723 26/729 27/535
f 26/729 2/4 27/535
