# Blender 5.1.2
# www.blender.org
mtllib uvsphere.mtl
o Icosphere
v 0.723607 -0.447220 0.525725
v -0.276388 -0.447220 0.850649
v 0.276388 0.447220 0.850649
v -0.723607 0.447220 0.525725
v -0.162456 -0.850654 0.499995
v 0.425323 -0.850654 0.309011
v 0.262869 -0.525738 0.809012
v -0.688189 -0.525736 0.499997
v 0.951058 0.000000 0.309013
v 0.000000 0.000000 1.000000
v 0.587786 0.000000 0.809017
v -0.951058 0.000000 0.309013
v -0.587786 0.000000 0.809017
v 0.688189 0.525736 0.499997
v -0.262869 0.525738 0.809012
v 0.162456 0.850654 0.499995
v -0.425323 0.850654 0.309011
s 1
f 2 7 10
f 1 9 11
f 2 10 13
f 3 14 16
f 4 15 17
f 17 15 16
f 15 3 16
f 13 15 4
f 13 10 15
f 10 3 15
f 11 14 3
f 11 9 14
f 12 13 4
f 12 8 13
f 8 2 13
f 10 11 3
f 10 7 11
f 7 1 11
f 5 2 8
f 5 7 2
f 5 6 7
f 6 1 7
